# xmcd database file
#
# Track frame offsets:
# 150
# 10713
# 22507
# 35569
# 47341
# 59923
# 71077
# 80999
# 92442
# 104105
# 113578
# 124953
# 135011
# 147070
# 157643
# 166612
# 176622
# 185839
# 196460
# 210025
# 219229
# 228514
# 239466
# 250751
# 260178
#
# Disc length: 3594 seconds
#
# Revision: 0
# Processed by: cddbd v1.5.2PL0 Copyright (c) Steve Scherf et al.
# Submitted via: CD-Runner 2006.50
#
DISCID=4e0e0819
DTITLE=Jim Reeves - The Best Of
DYEAR=1900
DGENRE=Country
TTITLE0=He'll Have To Go
TTITLE1=Mexican Joe
TTITLE2=Am I Losing You?
TTITLE3=Anna Marie
TTITLE4=Bimbo
TTITLE5=Two Shadows On Your Window
TTITLE6=I'm Beginning To Forget You
TTITLE7=I Love You (with Ginny Wright)
TTITLE8=Yonder Comes A Sucker
TTITLE9=Billy Bayou
TTITLE10=According To My Heart
TTITLE11=Partners
TTITLE12=Drinking Tequila
TTITLE13=Then I'll Stop Loving You
TTITLE14=Home
TTITLE15=Blue Boy
TTITLE16=Overnight
TTITLE17=My Lips Are Sealed
TTITLE18=Four Walls
TTITLE19=Young Hearts
TTITLE20=I'd Like To Be
TTITLE21=I Love You More
TTITLE22=Penny Candy
TTITLE23=Dear Hearts And Gentle People
TTITLE24=Ramona
EXTD=
EXTT0=
EXTT1=
EXTT2=
EXTT3=
EXTT4=
EXTT5=
EXTT6=
EXTT7=
EXTT8=
EXTT9=
EXTT10=
EXTT11=
EXTT12=
EXTT13=
EXTT14=
EXTT15=
EXTT16=
EXTT17=
EXTT18=
EXTT19=
EXTT20=
EXTT21=
EXTT22=
EXTT23=
EXTT24=
PLAYORDER=
